<svg xmlns="http://www.w3.org/2000/svg" viewBox="0 0 49 49" shape-rendering="crispEdges"><rect width="100%" height="100%" fill="#fff"/><path d="M4,4h1v1h-1zM5,4h1v1h-1zM6,4h1v1h-1zM7,4h1v1h-1zM8,4h1v1h-1zM9,4h1v1h-1zM10,4h1v1h-1zM13,4h1v1h-1zM16,4h1v1h-1zM18,4h1v1h-1zM19,4h1v1h-1zM20,4h1v1h-1zM21,4h1v1h-1zM24,4h1v1h-1zM25,4h1v1h-1zM27,4h1v1h-1zM28,4h1v1h-1zM29,4h1v1h-1zM30,4h1v1h-1zM31,4h1v1h-1zM32,4h1v1h-1zM33,4h1v1h-1zM34,4h1v1h-1zM38,4h1v1h-1zM39,4h1v1h-1zM40,4h1v1h-1zM41,4h1v1h-1zM42,4h1v1h-1zM43,4h1v1h-1zM44,4h1v1h-1zM4,5h1v1h-1zM10,5h1v1h-1zM14,5h1v1h-1zM17,5h1v1h-1zM19,5h1v1h-1zM22,5h1v1h-1zM24,5h1v1h-1zM25,5h1v1h-1zM28,5h1v1h-1zM30,5h1v1h-1zM32,5h1v1h-1zM34,5h1v1h-1zM35,5h1v1h-1zM36,5h1v1h-1zM38,5h1v1h-1zM44,5h1v1h-1zM4,6h1v1h-1zM6,6h1v1h-1zM7,6h1v1h-1zM8,6h1v1h-1zM10,6h1v1h-1zM12,6h1v1h-1zM15,6h1v1h-1zM17,6h1v1h-1zM18,6h1v1h-1zM20,6h1v1h-1zM22,6h1v1h-1zM25,6h1v1h-1zM27,6h1v1h-1zM33,6h1v1h-1zM34,6h1v1h-1zM35,6h1v1h-1zM36,6h1v1h-1zM38,6h1v1h-1zM40,6h1v1h-1zM41,6h1v1h-1zM42,6h1v1h-1zM44,6h1v1h-1zM4,7h1v1h-1zM6,7h1v1h-1zM7,7h1v1h-1zM8,7h1v1h-1zM10,7h1v1h-1zM15,7h1v1h-1zM16,7h1v1h-1zM17,7h1v1h-1zM19,7h1v1h-1zM20,7h1v1h-1zM22,7h1v1h-1zM23,7h1v1h-1zM24,7h1v1h-1zM25,7h1v1h-1zM26,7h1v1h-1zM28,7h1v1h-1zM29,7h1v1h-1zM32,7h1v1h-1zM34,7h1v1h-1zM35,7h1v1h-1zM38,7h1v1h-1zM40,7h1v1h-1zM41,7h1v1h-1zM42,7h1v1h-1zM44,7h1v1h-1zM4,8h1v1h-1zM6,8h1v1h-1zM7,8h1v1h-1zM8,8h1v1h-1zM10,8h1v1h-1zM12,8h1v1h-1zM15,8h1v1h-1zM18,8h1v1h-1zM22,8h1v1h-1zM23,8h1v1h-1zM24,8h1v1h-1zM25,8h1v1h-1zM26,8h1v1h-1zM27,8h1v1h-1zM28,8h1v1h-1zM29,8h1v1h-1zM31,8h1v1h-1zM32,8h1v1h-1zM34,8h1v1h-1zM38,8h1v1h-1zM40,8h1v1h-1zM41,8h1v1h-1zM42,8h1v1h-1zM44,8h1v1h-1zM4,9h1v1h-1zM10,9h1v1h-1zM12,9h1v1h-1zM13,9h1v1h-1zM16,9h1v1h-1zM17,9h1v1h-1zM19,9h1v1h-1zM24,9h1v1h-1zM28,9h1v1h-1zM29,9h1v1h-1zM34,9h1v1h-1zM35,9h1v1h-1zM36,9h1v1h-1zM38,9h1v1h-1zM44,9h1v1h-1zM4,10h1v1h-1zM5,10h1v1h-1zM6,10h1v1h-1zM7,10h1v1h-1zM8,10h1v1h-1zM9,10h1v1h-1zM10,10h1v1h-1zM12,10h1v1h-1zM14,10h1v1h-1zM16,10h1v1h-1zM18,10h1v1h-1zM20,10h1v1h-1zM22,10h1v1h-1zM24,10h1v1h-1zM26,10h1v1h-1zM28,10h1v1h-1zM30,10h1v1h-1zM32,10h1v1h-1zM34,10h1v1h-1zM36,10h1v1h-1zM38,10h1v1h-1zM39,10h1v1h-1zM40,10h1v1h-1zM41,10h1v1h-1zM42,10h1v1h-1zM43,10h1v1h-1zM44,10h1v1h-1zM13,11h1v1h-1zM14,11h1v1h-1zM16,11h1v1h-1zM18,11h1v1h-1zM19,11h1v1h-1zM20,11h1v1h-1zM21,11h1v1h-1zM22,11h1v1h-1zM24,11h1v1h-1zM26,11h1v1h-1zM27,11h1v1h-1zM32,11h1v1h-1zM33,11h1v1h-1zM35,11h1v1h-1zM36,11h1v1h-1zM5,12h1v1h-1zM8,12h1v1h-1zM10,12h1v1h-1zM12,12h1v1h-1zM14,12h1v1h-1zM15,12h1v1h-1zM17,12h1v1h-1zM20,12h1v1h-1zM22,12h1v1h-1zM25,12h1v1h-1zM26,12h1v1h-1zM28,12h1v1h-1zM32,12h1v1h-1zM33,12h1v1h-1zM37,12h1v1h-1zM39,12h1v1h-1zM40,12h1v1h-1zM42,12h1v1h-1zM5,13h1v1h-1zM9,13h1v1h-1zM13,13h1v1h-1zM16,13h1v1h-1zM17,13h1v1h-1zM18,13h1v1h-1zM19,13h1v1h-1zM20,13h1v1h-1zM24,13h1v1h-1zM27,13h1v1h-1zM28,13h1v1h-1zM30,13h1v1h-1zM31,13h1v1h-1zM32,13h1v1h-1zM38,13h1v1h-1zM39,13h1v1h-1zM40,13h1v1h-1zM41,13h1v1h-1zM44,13h1v1h-1zM6,14h1v1h-1zM8,14h1v1h-1zM10,14h1v1h-1zM11,14h1v1h-1zM12,14h1v1h-1zM13,14h1v1h-1zM14,14h1v1h-1zM16,14h1v1h-1zM17,14h1v1h-1zM20,14h1v1h-1zM21,14h1v1h-1zM23,14h1v1h-1zM25,14h1v1h-1zM27,14h1v1h-1zM28,14h1v1h-1zM29,14h1v1h-1zM30,14h1v1h-1zM31,14h1v1h-1zM36,14h1v1h-1zM39,14h1v1h-1zM40,14h1v1h-1zM44,14h1v1h-1zM4,15h1v1h-1zM7,15h1v1h-1zM11,15h1v1h-1zM15,15h1v1h-1zM17,15h1v1h-1zM18,15h1v1h-1zM19,15h1v1h-1zM20,15h1v1h-1zM23,15h1v1h-1zM26,15h1v1h-1zM27,15h1v1h-1zM28,15h1v1h-1zM30,15h1v1h-1zM31,15h1v1h-1zM33,15h1v1h-1zM35,15h1v1h-1zM36,15h1v1h-1zM37,15h1v1h-1zM40,15h1v1h-1zM41,15h1v1h-1zM43,15h1v1h-1zM44,15h1v1h-1zM4,16h1v1h-1zM5,16h1v1h-1zM7,16h1v1h-1zM8,16h1v1h-1zM10,16h1v1h-1zM11,16h1v1h-1zM12,16h1v1h-1zM13,16h1v1h-1zM19,16h1v1h-1zM21,16h1v1h-1zM22,16h1v1h-1zM25,16h1v1h-1zM26,16h1v1h-1zM32,16h1v1h-1zM33,16h1v1h-1zM36,16h1v1h-1zM37,16h1v1h-1zM43,16h1v1h-1zM44,16h1v1h-1zM4,17h1v1h-1zM5,17h1v1h-1zM7,17h1v1h-1zM9,17h1v1h-1zM12,17h1v1h-1zM17,17h1v1h-1zM18,17h1v1h-1zM19,17h1v1h-1zM25,17h1v1h-1zM26,17h1v1h-1zM28,17h1v1h-1zM29,17h1v1h-1zM30,17h1v1h-1zM31,17h1v1h-1zM32,17h1v1h-1zM33,17h1v1h-1zM38,17h1v1h-1zM39,17h1v1h-1zM40,17h1v1h-1zM44,17h1v1h-1zM4,18h1v1h-1zM7,18h1v1h-1zM8,18h1v1h-1zM9,18h1v1h-1zM10,18h1v1h-1zM12,18h1v1h-1zM14,18h1v1h-1zM16,18h1v1h-1zM17,18h1v1h-1zM18,18h1v1h-1zM19,18h1v1h-1zM21,18h1v1h-1zM24,18h1v1h-1zM27,18h1v1h-1zM28,18h1v1h-1zM30,18h1v1h-1zM31,18h1v1h-1zM33,18h1v1h-1zM37,18h1v1h-1zM38,18h1v1h-1zM39,18h1v1h-1zM40,18h1v1h-1zM43,18h1v1h-1zM44,18h1v1h-1zM5,19h1v1h-1zM6,19h1v1h-1zM11,19h1v1h-1zM12,19h1v1h-1zM13,19h1v1h-1zM14,19h1v1h-1zM17,19h1v1h-1zM23,19h1v1h-1zM24,19h1v1h-1zM26,19h1v1h-1zM27,19h1v1h-1zM31,19h1v1h-1zM32,19h1v1h-1zM33,19h1v1h-1zM34,19h1v1h-1zM35,19h1v1h-1zM40,19h1v1h-1zM41,19h1v1h-1zM5,20h1v1h-1zM9,20h1v1h-1zM10,20h1v1h-1zM11,20h1v1h-1zM14,20h1v1h-1zM16,20h1v1h-1zM18,20h1v1h-1zM19,20h1v1h-1zM24,20h1v1h-1zM25,20h1v1h-1zM28,20h1v1h-1zM33,20h1v1h-1zM35,20h1v1h-1zM36,20h1v1h-1zM39,20h1v1h-1zM41,20h1v1h-1zM6,21h1v1h-1zM8,21h1v1h-1zM11,21h1v1h-1zM12,21h1v1h-1zM13,21h1v1h-1zM14,21h1v1h-1zM15,21h1v1h-1zM17,21h1v1h-1zM18,21h1v1h-1zM21,21h1v1h-1zM22,21h1v1h-1zM23,21h1v1h-1zM27,21h1v1h-1zM28,21h1v1h-1zM31,21h1v1h-1zM32,21h1v1h-1zM34,21h1v1h-1zM37,21h1v1h-1zM38,21h1v1h-1zM39,21h1v1h-1zM40,21h1v1h-1zM44,21h1v1h-1zM4,22h1v1h-1zM5,22h1v1h-1zM9,22h1v1h-1zM10,22h1v1h-1zM11,22h1v1h-1zM13,22h1v1h-1zM14,22h1v1h-1zM15,22h1v1h-1zM16,22h1v1h-1zM17,22h1v1h-1zM21,22h1v1h-1zM22,22h1v1h-1zM24,22h1v1h-1zM25,22h1v1h-1zM26,22h1v1h-1zM27,22h1v1h-1zM28,22h1v1h-1zM30,22h1v1h-1zM31,22h1v1h-1zM33,22h1v1h-1zM36,22h1v1h-1zM37,22h1v1h-1zM38,22h1v1h-1zM39,22h1v1h-1zM41,22h1v1h-1zM42,22h1v1h-1zM44,22h1v1h-1zM4,23h1v1h-1zM7,23h1v1h-1zM9,23h1v1h-1zM12,23h1v1h-1zM16,23h1v1h-1zM19,23h1v1h-1zM20,23h1v1h-1zM22,23h1v1h-1zM26,23h1v1h-1zM28,23h1v1h-1zM30,23h1v1h-1zM31,23h1v1h-1zM33,23h1v1h-1zM34,23h1v1h-1zM35,23h1v1h-1zM36,23h1v1h-1zM39,23h1v1h-1zM41,23h1v1h-1zM44,23h1v1h-1zM5,24h1v1h-1zM6,24h1v1h-1zM8,24h1v1h-1zM9,24h1v1h-1zM10,24h1v1h-1zM11,24h1v1h-1zM12,24h1v1h-1zM13,24h1v1h-1zM15,24h1v1h-1zM16,24h1v1h-1zM20,24h1v1h-1zM22,24h1v1h-1zM23,24h1v1h-1zM25,24h1v1h-1zM26,24h1v1h-1zM27,24h1v1h-1zM28,24h1v1h-1zM30,24h1v1h-1zM31,24h1v1h-1zM32,24h1v1h-1zM33,24h1v1h-1zM34,24h1v1h-1zM36,24h1v1h-1zM37,24h1v1h-1zM43,24h1v1h-1zM4,25h1v1h-1zM5,25h1v1h-1zM7,25h1v1h-1zM9,25h1v1h-1zM11,25h1v1h-1zM15,25h1v1h-1zM16,25h1v1h-1zM17,25h1v1h-1zM19,25h1v1h-1zM21,25h1v1h-1zM22,25h1v1h-1zM23,25h1v1h-1zM26,25h1v1h-1zM27,25h1v1h-1zM31,25h1v1h-1zM32,25h1v1h-1zM34,25h1v1h-1zM36,25h1v1h-1zM38,25h1v1h-1zM39,25h1v1h-1zM40,25h1v1h-1zM41,25h1v1h-1zM42,25h1v1h-1zM44,25h1v1h-1zM4,26h1v1h-1zM6,26h1v1h-1zM10,26h1v1h-1zM11,26h1v1h-1zM13,26h1v1h-1zM14,26h1v1h-1zM20,26h1v1h-1zM22,26h1v1h-1zM24,26h1v1h-1zM25,26h1v1h-1zM27,26h1v1h-1zM29,26h1v1h-1zM30,26h1v1h-1zM31,26h1v1h-1zM32,26h1v1h-1zM36,26h1v1h-1zM37,26h1v1h-1zM38,26h1v1h-1zM41,26h1v1h-1zM44,26h1v1h-1zM4,27h1v1h-1zM6,27h1v1h-1zM8,27h1v1h-1zM16,27h1v1h-1zM24,27h1v1h-1zM25,27h1v1h-1zM26,27h1v1h-1zM27,27h1v1h-1zM28,27h1v1h-1zM30,27h1v1h-1zM31,27h1v1h-1zM32,27h1v1h-1zM33,27h1v1h-1zM36,27h1v1h-1zM38,27h1v1h-1zM39,27h1v1h-1zM41,27h1v1h-1zM43,27h1v1h-1zM44,27h1v1h-1zM4,28h1v1h-1zM7,28h1v1h-1zM10,28h1v1h-1zM11,28h1v1h-1zM14,28h1v1h-1zM16,28h1v1h-1zM24,28h1v1h-1zM33,28h1v1h-1zM36,28h1v1h-1zM37,28h1v1h-1zM44,28h1v1h-1zM4,29h1v1h-1zM5,29h1v1h-1zM12,29h1v1h-1zM13,29h1v1h-1zM14,29h1v1h-1zM15,29h1v1h-1zM19,29h1v1h-1zM20,29h1v1h-1zM23,29h1v1h-1zM24,29h1v1h-1zM26,29h1v1h-1zM27,29h1v1h-1zM28,29h1v1h-1zM29,29h1v1h-1zM31,29h1v1h-1zM32,29h1v1h-1zM34,29h1v1h-1zM36,29h1v1h-1zM37,29h1v1h-1zM38,29h1v1h-1zM39,29h1v1h-1zM40,29h1v1h-1zM42,29h1v1h-1zM44,29h1v1h-1zM4,30h1v1h-1zM6,30h1v1h-1zM8,30h1v1h-1zM9,30h1v1h-1zM10,30h1v1h-1zM11,30h1v1h-1zM12,30h1v1h-1zM13,30h1v1h-1zM14,30h1v1h-1zM15,30h1v1h-1zM16,30h1v1h-1zM18,30h1v1h-1zM19,30h1v1h-1zM21,30h1v1h-1zM22,30h1v1h-1zM23,30h1v1h-1zM24,30h1v1h-1zM25,30h1v1h-1zM27,30h1v1h-1zM30,30h1v1h-1zM31,30h1v1h-1zM32,30h1v1h-1zM36,30h1v1h-1zM38,30h1v1h-1zM44,30h1v1h-1zM5,31h1v1h-1zM6,31h1v1h-1zM7,31h1v1h-1zM12,31h1v1h-1zM13,31h1v1h-1zM16,31h1v1h-1zM19,31h1v1h-1zM22,31h1v1h-1zM24,31h1v1h-1zM25,31h1v1h-1zM26,31h1v1h-1zM28,31h1v1h-1zM32,31h1v1h-1zM33,31h1v1h-1zM35,31h1v1h-1zM36,31h1v1h-1zM37,31h1v1h-1zM38,31h1v1h-1zM39,31h1v1h-1zM41,31h1v1h-1zM44,31h1v1h-1zM4,32h1v1h-1zM5,32h1v1h-1zM6,32h1v1h-1zM8,32h1v1h-1zM9,32h1v1h-1zM10,32h1v1h-1zM12,32h1v1h-1zM13,32h1v1h-1zM15,32h1v1h-1zM16,32h1v1h-1zM19,32h1v1h-1zM20,32h1v1h-1zM21,32h1v1h-1zM24,32h1v1h-1zM27,32h1v1h-1zM28,32h1v1h-1zM31,32h1v1h-1zM32,32h1v1h-1zM33,32h1v1h-1zM34,32h1v1h-1zM37,32h1v1h-1zM43,32h1v1h-1zM44,32h1v1h-1zM4,33h1v1h-1zM6,33h1v1h-1zM7,33h1v1h-1zM9,33h1v1h-1zM12,33h1v1h-1zM13,33h1v1h-1zM14,33h1v1h-1zM15,33h1v1h-1zM17,33h1v1h-1zM20,33h1v1h-1zM21,33h1v1h-1zM23,33h1v1h-1zM24,33h1v1h-1zM25,33h1v1h-1zM29,33h1v1h-1zM31,33h1v1h-1zM32,33h1v1h-1zM34,33h1v1h-1zM38,33h1v1h-1zM40,33h1v1h-1zM41,33h1v1h-1zM42,33h1v1h-1zM43,33h1v1h-1zM44,33h1v1h-1zM6,34h1v1h-1zM9,34h1v1h-1zM10,34h1v1h-1zM11,34h1v1h-1zM14,34h1v1h-1zM22,34h1v1h-1zM25,34h1v1h-1zM30,34h1v1h-1zM31,34h1v1h-1zM36,34h1v1h-1zM37,34h1v1h-1zM39,34h1v1h-1zM40,34h1v1h-1zM41,34h1v1h-1zM44,34h1v1h-1zM6,35h1v1h-1zM7,35h1v1h-1zM9,35h1v1h-1zM13,35h1v1h-1zM14,35h1v1h-1zM16,35h1v1h-1zM17,35h1v1h-1zM20,35h1v1h-1zM24,35h1v1h-1zM25,35h1v1h-1zM28,35h1v1h-1zM30,35h1v1h-1zM33,35h1v1h-1zM34,35h1v1h-1zM36,35h1v1h-1zM37,35h1v1h-1zM39,35h1v1h-1zM41,35h1v1h-1zM4,36h1v1h-1zM5,36h1v1h-1zM6,36h1v1h-1zM7,36h1v1h-1zM9,36h1v1h-1zM10,36h1v1h-1zM12,36h1v1h-1zM14,36h1v1h-1zM15,36h1v1h-1zM16,36h1v1h-1zM17,36h1v1h-1zM19,36h1v1h-1zM20,36h1v1h-1zM21,36h1v1h-1zM22,36h1v1h-1zM24,36h1v1h-1zM26,36h1v1h-1zM27,36h1v1h-1zM28,36h1v1h-1zM31,36h1v1h-1zM33,36h1v1h-1zM34,36h1v1h-1zM35,36h1v1h-1zM36,36h1v1h-1zM37,36h1v1h-1zM38,36h1v1h-1zM39,36h1v1h-1zM40,36h1v1h-1zM41,36h1v1h-1zM43,36h1v1h-1zM44,36h1v1h-1zM12,37h1v1h-1zM15,37h1v1h-1zM19,37h1v1h-1zM21,37h1v1h-1zM22,37h1v1h-1zM23,37h1v1h-1zM25,37h1v1h-1zM26,37h1v1h-1zM27,37h1v1h-1zM29,37h1v1h-1zM30,37h1v1h-1zM31,37h1v1h-1zM32,37h1v1h-1zM33,37h1v1h-1zM34,37h1v1h-1zM35,37h1v1h-1zM36,37h1v1h-1zM40,37h1v1h-1zM41,37h1v1h-1zM42,37h1v1h-1zM43,37h1v1h-1zM44,37h1v1h-1zM4,38h1v1h-1zM5,38h1v1h-1zM6,38h1v1h-1zM7,38h1v1h-1zM8,38h1v1h-1zM9,38h1v1h-1zM10,38h1v1h-1zM13,38h1v1h-1zM17,38h1v1h-1zM18,38h1v1h-1zM20,38h1v1h-1zM23,38h1v1h-1zM25,38h1v1h-1zM27,38h1v1h-1zM31,38h1v1h-1zM34,38h1v1h-1zM35,38h1v1h-1zM36,38h1v1h-1zM38,38h1v1h-1zM40,38h1v1h-1zM43,38h1v1h-1zM44,38h1v1h-1zM4,39h1v1h-1zM10,39h1v1h-1zM13,39h1v1h-1zM16,39h1v1h-1zM19,39h1v1h-1zM20,39h1v1h-1zM25,39h1v1h-1zM27,39h1v1h-1zM28,39h1v1h-1zM30,39h1v1h-1zM31,39h1v1h-1zM33,39h1v1h-1zM34,39h1v1h-1zM35,39h1v1h-1zM36,39h1v1h-1zM40,39h1v1h-1zM41,39h1v1h-1zM4,40h1v1h-1zM6,40h1v1h-1zM7,40h1v1h-1zM8,40h1v1h-1zM10,40h1v1h-1zM12,40h1v1h-1zM13,40h1v1h-1zM16,40h1v1h-1zM18,40h1v1h-1zM19,40h1v1h-1zM21,40h1v1h-1zM24,40h1v1h-1zM25,40h1v1h-1zM26,40h1v1h-1zM27,40h1v1h-1zM29,40h1v1h-1zM30,40h1v1h-1zM31,40h1v1h-1zM32,40h1v1h-1zM33,40h1v1h-1zM34,40h1v1h-1zM35,40h1v1h-1zM36,40h1v1h-1zM37,40h1v1h-1zM38,40h1v1h-1zM39,40h1v1h-1zM40,40h1v1h-1zM41,40h1v1h-1zM43,40h1v1h-1zM4,41h1v1h-1zM6,41h1v1h-1zM7,41h1v1h-1zM8,41h1v1h-1zM10,41h1v1h-1zM13,41h1v1h-1zM14,41h1v1h-1zM19,41h1v1h-1zM23,41h1v1h-1zM25,41h1v1h-1zM27,41h1v1h-1zM29,41h1v1h-1zM30,41h1v1h-1zM31,41h1v1h-1zM32,41h1v1h-1zM33,41h1v1h-1zM39,41h1v1h-1zM42,41h1v1h-1zM4,42h1v1h-1zM6,42h1v1h-1zM7,42h1v1h-1zM8,42h1v1h-1zM10,42h1v1h-1zM14,42h1v1h-1zM15,42h1v1h-1zM19,42h1v1h-1zM20,42h1v1h-1zM21,42h1v1h-1zM23,42h1v1h-1zM27,42h1v1h-1zM28,42h1v1h-1zM29,42h1v1h-1zM31,42h1v1h-1zM34,42h1v1h-1zM37,42h1v1h-1zM42,42h1v1h-1zM44,42h1v1h-1zM4,43h1v1h-1zM10,43h1v1h-1zM12,43h1v1h-1zM15,43h1v1h-1zM18,43h1v1h-1zM22,43h1v1h-1zM23,43h1v1h-1zM24,43h1v1h-1zM25,43h1v1h-1zM27,43h1v1h-1zM28,43h1v1h-1zM30,43h1v1h-1zM33,43h1v1h-1zM34,43h1v1h-1zM36,43h1v1h-1zM39,43h1v1h-1zM41,43h1v1h-1zM43,43h1v1h-1zM44,43h1v1h-1zM4,44h1v1h-1zM5,44h1v1h-1zM6,44h1v1h-1zM7,44h1v1h-1zM8,44h1v1h-1zM9,44h1v1h-1zM10,44h1v1h-1zM13,44h1v1h-1zM14,44h1v1h-1zM16,44h1v1h-1zM17,44h1v1h-1zM19,44h1v1h-1zM21,44h1v1h-1zM23,44h1v1h-1zM28,44h1v1h-1zM30,44h1v1h-1zM31,44h1v1h-1zM33,44h1v1h-1zM36,44h1v1h-1zM37,44h1v1h-1zM38,44h1v1h-1zM39,44h1v1h-1zM40,44h1v1h-1zM41,44h1v1h-1zM43,44h1v1h-1z" fill="#0E1110"/></svg>